<mxfile host="app.diagrams.net" modified="2023-10-05T13:38:10.630Z" agent="Mozilla/5.0 (Windows NT 10.0; Win64; x64) AppleWebKit/537.36 (KHTML, like Gecko) Chrome/119.0.0.0 Safari/537.36" etag="yT-qRxlP2Zj_dJ1m1X0K" version="22.0.2" type="device">
  <diagram name="Page-1" id="VJZMKuNzVP8RR-i9ATP4">
    <mxGraphModel dx="660" dy="982" grid="1" gridSize="10" guides="1" tooltips="1" connect="1" arrows="1" fold="1" page="1" pageScale="1" pageWidth="827" pageHeight="1169" math="0" shadow="0">
      <root>
        <mxCell id="0" />
        <mxCell id="1" parent="0" />
        <mxCell id="mO8-FI6pvI609V8-yhSR-3" style="edgeStyle=orthogonalEdgeStyle;rounded=0;orthogonalLoop=1;jettySize=auto;html=1;exitX=0.25;exitY=1;exitDx=0;exitDy=0;entryX=0.5;entryY=0;entryDx=0;entryDy=0;" edge="1" parent="1" source="mO8-FI6pvI609V8-yhSR-1" target="mO8-FI6pvI609V8-yhSR-2">
          <mxGeometry relative="1" as="geometry" />
        </mxCell>
        <mxCell id="mO8-FI6pvI609V8-yhSR-5" style="edgeStyle=orthogonalEdgeStyle;rounded=0;orthogonalLoop=1;jettySize=auto;html=1;exitX=0.75;exitY=1;exitDx=0;exitDy=0;entryX=0.5;entryY=0;entryDx=0;entryDy=0;" edge="1" parent="1" source="mO8-FI6pvI609V8-yhSR-1" target="mO8-FI6pvI609V8-yhSR-4">
          <mxGeometry relative="1" as="geometry" />
        </mxCell>
        <mxCell id="mO8-FI6pvI609V8-yhSR-1" value="Program" style="rounded=0;whiteSpace=wrap;html=1;" vertex="1" parent="1">
          <mxGeometry x="320" y="320" width="80" height="40" as="geometry" />
        </mxCell>
        <mxCell id="mO8-FI6pvI609V8-yhSR-2" value="ident (Util)" style="rounded=0;whiteSpace=wrap;html=1;" vertex="1" parent="1">
          <mxGeometry x="240" y="400" width="80" height="40" as="geometry" />
        </mxCell>
        <mxCell id="mO8-FI6pvI609V8-yhSR-7" style="edgeStyle=orthogonalEdgeStyle;rounded=0;orthogonalLoop=1;jettySize=auto;html=1;exitX=0.25;exitY=1;exitDx=0;exitDy=0;" edge="1" parent="1" source="mO8-FI6pvI609V8-yhSR-4" target="mO8-FI6pvI609V8-yhSR-6">
          <mxGeometry relative="1" as="geometry" />
        </mxCell>
        <mxCell id="mO8-FI6pvI609V8-yhSR-11" style="edgeStyle=orthogonalEdgeStyle;rounded=0;orthogonalLoop=1;jettySize=auto;html=1;exitX=0.5;exitY=1;exitDx=0;exitDy=0;" edge="1" parent="1" source="mO8-FI6pvI609V8-yhSR-4" target="mO8-FI6pvI609V8-yhSR-10">
          <mxGeometry relative="1" as="geometry" />
        </mxCell>
        <mxCell id="mO8-FI6pvI609V8-yhSR-13" style="edgeStyle=orthogonalEdgeStyle;rounded=0;orthogonalLoop=1;jettySize=auto;html=1;exitX=0.75;exitY=1;exitDx=0;exitDy=0;entryX=0.5;entryY=0;entryDx=0;entryDy=0;" edge="1" parent="1" source="mO8-FI6pvI609V8-yhSR-4" target="mO8-FI6pvI609V8-yhSR-12">
          <mxGeometry relative="1" as="geometry" />
        </mxCell>
        <mxCell id="mO8-FI6pvI609V8-yhSR-21" style="edgeStyle=orthogonalEdgeStyle;rounded=0;orthogonalLoop=1;jettySize=auto;html=1;exitX=1;exitY=1;exitDx=0;exitDy=0;entryX=0.5;entryY=0;entryDx=0;entryDy=0;" edge="1" parent="1" source="mO8-FI6pvI609V8-yhSR-4" target="mO8-FI6pvI609V8-yhSR-20">
          <mxGeometry relative="1" as="geometry" />
        </mxCell>
        <mxCell id="mO8-FI6pvI609V8-yhSR-4" value="MethodDecl" style="rounded=0;whiteSpace=wrap;html=1;" vertex="1" parent="1">
          <mxGeometry x="400" y="400" width="80" height="40" as="geometry" />
        </mxCell>
        <mxCell id="mO8-FI6pvI609V8-yhSR-8" style="edgeStyle=orthogonalEdgeStyle;rounded=0;orthogonalLoop=1;jettySize=auto;html=1;exitX=0.5;exitY=1;exitDx=0;exitDy=0;" edge="1" parent="1" source="mO8-FI6pvI609V8-yhSR-6">
          <mxGeometry relative="1" as="geometry">
            <mxPoint x="280.1428571428571" y="560" as="targetPoint" />
          </mxGeometry>
        </mxCell>
        <mxCell id="mO8-FI6pvI609V8-yhSR-6" value="Type" style="rounded=0;whiteSpace=wrap;html=1;" vertex="1" parent="1">
          <mxGeometry x="240" y="480" width="80" height="40" as="geometry" />
        </mxCell>
        <mxCell id="mO8-FI6pvI609V8-yhSR-9" value="ident (int)" style="rounded=0;whiteSpace=wrap;html=1;" vertex="1" parent="1">
          <mxGeometry x="240" y="560" width="80" height="40" as="geometry" />
        </mxCell>
        <mxCell id="mO8-FI6pvI609V8-yhSR-10" value="ident (power3)" style="rounded=0;whiteSpace=wrap;html=1;" vertex="1" parent="1">
          <mxGeometry x="330" y="490" width="76" height="40" as="geometry" />
        </mxCell>
        <mxCell id="mO8-FI6pvI609V8-yhSR-16" style="edgeStyle=orthogonalEdgeStyle;rounded=0;orthogonalLoop=1;jettySize=auto;html=1;exitX=0.25;exitY=1;exitDx=0;exitDy=0;" edge="1" parent="1" source="mO8-FI6pvI609V8-yhSR-12" target="mO8-FI6pvI609V8-yhSR-14">
          <mxGeometry relative="1" as="geometry" />
        </mxCell>
        <mxCell id="mO8-FI6pvI609V8-yhSR-19" style="edgeStyle=orthogonalEdgeStyle;rounded=0;orthogonalLoop=1;jettySize=auto;html=1;exitX=0.75;exitY=1;exitDx=0;exitDy=0;" edge="1" parent="1" source="mO8-FI6pvI609V8-yhSR-12" target="mO8-FI6pvI609V8-yhSR-18">
          <mxGeometry relative="1" as="geometry" />
        </mxCell>
        <mxCell id="mO8-FI6pvI609V8-yhSR-12" value="FormPars" style="rounded=0;whiteSpace=wrap;html=1;" vertex="1" parent="1">
          <mxGeometry x="420" y="490" width="80" height="40" as="geometry" />
        </mxCell>
        <mxCell id="mO8-FI6pvI609V8-yhSR-17" style="edgeStyle=orthogonalEdgeStyle;rounded=0;orthogonalLoop=1;jettySize=auto;html=1;exitX=0.5;exitY=1;exitDx=0;exitDy=0;entryX=0.5;entryY=0;entryDx=0;entryDy=0;" edge="1" parent="1" source="mO8-FI6pvI609V8-yhSR-14" target="mO8-FI6pvI609V8-yhSR-15">
          <mxGeometry relative="1" as="geometry" />
        </mxCell>
        <mxCell id="mO8-FI6pvI609V8-yhSR-14" value="Type" style="rounded=0;whiteSpace=wrap;html=1;" vertex="1" parent="1">
          <mxGeometry x="340" y="570" width="80" height="40" as="geometry" />
        </mxCell>
        <mxCell id="mO8-FI6pvI609V8-yhSR-15" value="ident (int)" style="rounded=0;whiteSpace=wrap;html=1;" vertex="1" parent="1">
          <mxGeometry x="340" y="640" width="80" height="40" as="geometry" />
        </mxCell>
        <mxCell id="mO8-FI6pvI609V8-yhSR-18" value="ident (x)" style="rounded=0;whiteSpace=wrap;html=1;" vertex="1" parent="1">
          <mxGeometry x="440" y="560" width="80" height="40" as="geometry" />
        </mxCell>
        <mxCell id="mO8-FI6pvI609V8-yhSR-23" style="edgeStyle=orthogonalEdgeStyle;rounded=0;orthogonalLoop=1;jettySize=auto;html=1;exitX=0.5;exitY=1;exitDx=0;exitDy=0;entryX=0.5;entryY=0;entryDx=0;entryDy=0;" edge="1" parent="1" source="mO8-FI6pvI609V8-yhSR-20" target="mO8-FI6pvI609V8-yhSR-22">
          <mxGeometry relative="1" as="geometry" />
        </mxCell>
        <mxCell id="mO8-FI6pvI609V8-yhSR-20" value="Block" style="rounded=0;whiteSpace=wrap;html=1;" vertex="1" parent="1">
          <mxGeometry x="560" y="490" width="80" height="40" as="geometry" />
        </mxCell>
        <mxCell id="mO8-FI6pvI609V8-yhSR-28" style="edgeStyle=orthogonalEdgeStyle;rounded=0;orthogonalLoop=1;jettySize=auto;html=1;exitX=0.5;exitY=1;exitDx=0;exitDy=0;entryX=0.5;entryY=0;entryDx=0;entryDy=0;" edge="1" parent="1" source="mO8-FI6pvI609V8-yhSR-22" target="mO8-FI6pvI609V8-yhSR-27">
          <mxGeometry relative="1" as="geometry" />
        </mxCell>
        <mxCell id="mO8-FI6pvI609V8-yhSR-22" value="Statement" style="rounded=0;whiteSpace=wrap;html=1;" vertex="1" parent="1">
          <mxGeometry x="560" y="560" width="80" height="40" as="geometry" />
        </mxCell>
        <mxCell id="mO8-FI6pvI609V8-yhSR-31" style="edgeStyle=orthogonalEdgeStyle;rounded=0;orthogonalLoop=1;jettySize=auto;html=1;exitX=0.25;exitY=1;exitDx=0;exitDy=0;entryX=0.5;entryY=0;entryDx=0;entryDy=0;" edge="1" parent="1" source="mO8-FI6pvI609V8-yhSR-27" target="mO8-FI6pvI609V8-yhSR-30">
          <mxGeometry relative="1" as="geometry" />
        </mxCell>
        <mxCell id="mO8-FI6pvI609V8-yhSR-40" style="edgeStyle=orthogonalEdgeStyle;rounded=0;orthogonalLoop=1;jettySize=auto;html=1;exitX=0.75;exitY=1;exitDx=0;exitDy=0;entryX=0.5;entryY=0;entryDx=0;entryDy=0;" edge="1" parent="1" source="mO8-FI6pvI609V8-yhSR-27" target="mO8-FI6pvI609V8-yhSR-39">
          <mxGeometry relative="1" as="geometry" />
        </mxCell>
        <mxCell id="mO8-FI6pvI609V8-yhSR-27" value="Expr" style="rounded=0;whiteSpace=wrap;html=1;" vertex="1" parent="1">
          <mxGeometry x="560" y="640" width="80" height="40" as="geometry" />
        </mxCell>
        <mxCell id="mO8-FI6pvI609V8-yhSR-34" style="edgeStyle=orthogonalEdgeStyle;rounded=0;orthogonalLoop=1;jettySize=auto;html=1;exitX=0.5;exitY=1;exitDx=0;exitDy=0;entryX=0.5;entryY=0;entryDx=0;entryDy=0;" edge="1" parent="1" source="mO8-FI6pvI609V8-yhSR-30" target="mO8-FI6pvI609V8-yhSR-32">
          <mxGeometry relative="1" as="geometry" />
        </mxCell>
        <mxCell id="mO8-FI6pvI609V8-yhSR-30" value="Term" style="rounded=0;whiteSpace=wrap;html=1;" vertex="1" parent="1">
          <mxGeometry x="480" y="720" width="80" height="40" as="geometry" />
        </mxCell>
        <mxCell id="mO8-FI6pvI609V8-yhSR-36" style="edgeStyle=orthogonalEdgeStyle;rounded=0;orthogonalLoop=1;jettySize=auto;html=1;exitX=0.5;exitY=1;exitDx=0;exitDy=0;entryX=0.5;entryY=0;entryDx=0;entryDy=0;" edge="1" parent="1" source="mO8-FI6pvI609V8-yhSR-32" target="mO8-FI6pvI609V8-yhSR-35">
          <mxGeometry relative="1" as="geometry" />
        </mxCell>
        <mxCell id="mO8-FI6pvI609V8-yhSR-32" value="Factor" style="rounded=0;whiteSpace=wrap;html=1;" vertex="1" parent="1">
          <mxGeometry x="480" y="800" width="80" height="40" as="geometry" />
        </mxCell>
        <mxCell id="mO8-FI6pvI609V8-yhSR-38" style="edgeStyle=orthogonalEdgeStyle;rounded=0;orthogonalLoop=1;jettySize=auto;html=1;exitX=0.5;exitY=1;exitDx=0;exitDy=0;entryX=0.5;entryY=0;entryDx=0;entryDy=0;" edge="1" parent="1" source="mO8-FI6pvI609V8-yhSR-35" target="mO8-FI6pvI609V8-yhSR-37">
          <mxGeometry relative="1" as="geometry" />
        </mxCell>
        <mxCell id="mO8-FI6pvI609V8-yhSR-35" value="Designator" style="rounded=0;whiteSpace=wrap;html=1;" vertex="1" parent="1">
          <mxGeometry x="480" y="880" width="80" height="40" as="geometry" />
        </mxCell>
        <mxCell id="mO8-FI6pvI609V8-yhSR-37" value="ident (x)" style="rounded=0;whiteSpace=wrap;html=1;" vertex="1" parent="1">
          <mxGeometry x="480" y="960" width="80" height="40" as="geometry" />
        </mxCell>
        <mxCell id="mO8-FI6pvI609V8-yhSR-39" value="number (3)" style="rounded=0;whiteSpace=wrap;html=1;" vertex="1" parent="1">
          <mxGeometry x="640" y="720" width="80" height="40" as="geometry" />
        </mxCell>
      </root>
    </mxGraphModel>
  </diagram>
</mxfile>
